<svg width="95" height="83" viewBox="0 0 95 83" fill="none" xmlns="http://www.w3.org/2000/svg">
<path d="M49.3475 1.62248V13.9304C49.3475 14.7711 48.7062 15.477 47.8656 15.5417C42.2882 15.9728 22.6031 19.109 17.0203 41.9251C17.0203 41.9251 12.8925 58.5764 24.4676 65.4955C24.4676 65.4955 32.804 70.3347 43.3175 61.2708C43.6947 60.9474 43.463 60.3169 42.9672 60.3169H33.553C32.6585 60.3169 31.9364 59.5948 31.9364 58.7003V48.2138C31.9364 47.3192 32.6585 46.5971 33.553 46.5971H66.5161C67.4107 46.5971 68.1328 47.3192 68.1328 48.2138V81.1661C68.1328 82.0606 67.4107 82.7827 66.5161 82.7827H56.0404C55.1458 82.7827 54.4237 82.0606 54.4237 81.1661V73.5033C54.4237 73.0398 53.8741 72.7865 53.5292 73.0991C50.6408 75.7019 41.038 83.3431 28.6385 82.551C28.6385 82.551 4.86323 81.9421 0.875544 54.2546C0.875544 54.2546 -2.86426 31.223 15.2797 14.0328C15.2797 14.0382 28.1373 0.447731 47.6932 0.000463589C48.5985 -0.0210915 49.3475 0.711781 49.3475 1.62248Z" fill="#699BFF"/>
<path d="M83.4419 41.6503L80.5319 49.5179C80.187 50.4555 78.856 50.4555 78.5111 49.5179L75.6012 41.6503C75.1863 40.524 74.2971 39.6349 73.1709 39.2199L65.3033 36.31C64.3656 35.9651 64.3656 34.6341 65.3033 34.2892L73.1709 31.3793C74.2971 30.9643 75.1863 30.0752 75.6012 28.9489L78.5111 21.0813C78.856 20.1437 80.187 20.1437 80.5319 21.0813L83.4419 28.9489C83.8568 30.0752 84.7459 30.9643 85.8722 31.3793L93.7398 34.2892C94.6774 34.6341 94.6774 35.9651 93.7398 36.31L85.8722 39.2199C84.7459 39.6349 83.8568 40.524 83.4419 41.6503Z" fill="#292E3A"/>
</svg>
