<?xml version="1.0" standalone="no"?>
<!DOCTYPE svg PUBLIC "-//W3C//DTD SVG 20010904//EN"
 "http://www.w3.org/TR/2001/REC-SVG-20010904/DTD/svg10.dtd">
<svg version="1.0" xmlns="http://www.w3.org/2000/svg"
 width="1280.000000pt" height="1280.000000pt" viewBox="0 0 1280.000000 1280.000000"
 preserveAspectRatio="xMidYMid meet">

<g transform="translate(0.000000,1280.000000) scale(0.100000,-0.100000)"
fill="#4163f6" stroke="none">
<path d="M0 6400 l0 -6400 6400 0 6400 0 0 6400 0 6400 -6400 0 -6400 0 0
-6400z m6640 4991 l0 -1298 -127 -7 c-544 -31 -1051 -164 -1523 -400 -363
-182 -635 -375 -919 -651 -600 -585 -967 -1325 -1078 -2180 -26 -200 -26 -720
0 -920 58 -440 187 -860 376 -1220 185 -353 370 -611 626 -874 308 -316 631
-548 1040 -747 472 -230 945 -351 1477 -380 l128 -7 2 -648 c2 -357 2 -942 0
-1301 l-2 -651 -193 7 c-1590 56 -3079 689 -4216 1791 -1061 1028 -1741 2445
-1876 3910 -36 392 -30 910 16 1310 139 1219 659 2407 1466 3351 154 180 504
533 668 673 573 490 1220 873 1920 1136 669 251 1402 393 2088 403 l127 2 0
-1299z m5720 -6681 l0 -2820 -1290 0 -1290 0 0 1518 0 1519 -768 6 c-422 4
-1106 4 -1520 0 l-752 -6 0 1301 0 1302 2810 0 2810 0 0 -2820z"/>
</g>
</svg>
