<svg width="21" height="20" viewBox="0 0 21 20" fill="none" xmlns="http://www.w3.org/2000/svg">
<path d="M11 19.7113C10.6906 19.89 10.3094 19.89 10 19.7113L2.33974 15.2887C2.03034 15.11 1.83975 14.7799 1.83975 14.4226L1.83975 5.57735C1.83975 5.22008 2.03035 4.88996 2.33975 4.71132L10 0.288674C10.3094 0.110042 10.6906 0.110042 11 0.288674L18.6603 4.71132C18.9697 4.88996 19.1603 5.22009 19.1603 5.57735L19.1603 14.4226C19.1603 14.7799 18.9697 15.11 18.6603 15.2887L11 19.7113Z" fill="#90B8FF"/>
<path d="M11 16.7113C10.6906 16.89 10.3094 16.89 10 16.7113L4.93782 13.7887C4.62842 13.61 4.43782 13.2799 4.43782 12.9226L4.43782 7.07735C4.43782 6.72008 4.62842 6.38996 4.93782 6.21132L10 3.28868C10.3094 3.11004 10.6906 3.11004 11 3.28868L16.0622 6.21133C16.3716 6.38996 16.5622 6.72009 16.5622 7.07735L16.5622 12.9227C16.5622 13.2799 16.3716 13.61 16.0622 13.7887L11 16.7113Z" fill="white" fill-opacity="0.3"/>
<path d="M11 13.7113C10.6906 13.89 10.3094 13.89 10 13.7113L7.5359 12.2887C7.2265 12.11 7.0359 11.7799 7.0359 11.4226L7.0359 8.57735C7.0359 8.22008 7.2265 7.88996 7.5359 7.71132L10 6.28867C10.3094 6.11004 10.6906 6.11004 11 6.28868L13.4641 7.71133C13.7735 7.88996 13.9641 8.22009 13.9641 8.57735L13.9641 11.4226C13.9641 11.7799 13.7735 12.11 13.4641 12.2887L11 13.7113Z" fill="white" fill-opacity="0.6"/>
</svg>
